PathFileType	4	(X/Y/Z)	TVC_12_BWA2_walk_RCNL2025.trc
DataRate	CameraRate	NumFrames	NumMarkers	Units	OrigDataRate	OrigDataStartFrame	OrigNumFrames
100	100	8	27	mm	100	276	440
Frame#	Time	R_Shoulder			L_Shoulder			C7			J_Notch			R_Elbow			L_Elbow			R_Wrist			L_Wrist			R_Asis			L_Asis			R_Psis			L_Psis			Sacral			Thoracic			Sternum			R_Thigh_Lateral			R_Knee_Lateral			R_Shank_Lateral			R_Ankle_Lateral			R_Heel			R_Toe			L_Thigh_Lateral			L_Knee_Lateral			L_Shank_Lateral			L_Ankle_Lateral			L_Heel			L_Toe		
		X1	Y1	Z1	X2	Y2	Z2	X3	Y3	Z3	X4	Y4	Z4	X5	Y5	Z5	X6	Y6	Z6	X7	Y7	Z7	X8	Y8	Z8	X9	Y9	Z9	X10	Y10	Z10	X11	Y11	Z11	X12	Y12	Z12	X13	Y13	Z13	X14	Y14	Z14	X15	Y15	Z15	X16	Y16	Z16	X17	Y17	Z17	X18	Y18	Z18	X19	Y19	Z19	X20	Y20	Z20	X21	Y21	Z21	X22	Y22	Z22	X23	Y23	Z23	X24	Y24	Z24	X25	Y25	Z25	X26	Y26	Z26	X27	Y27	Z27
276	2.75000000	843.390625	1336.088745	-75.784363	809.074585	1333.291748	-492.762268	727.033936	1409.612061	-274.868958	873.486816	1292.001709	-284.847809	705.035583	1025.200073	-2.743138	628.206299	1041.136719	-552.313171	722.086334	778.283508	-56.651325	634.285034	804.170105	-491.022629	788.799744	894.440430	-106.215965	781.132507	915.258423	-456.771729	611.738342	930.626587	-213.678558	606.875305	941.796936	-319.788605	609.306824	936.211761	-266.733582	626.912537	1156.388428	-272.412903	953.040710	1099.361328	-297.700287	854.049744	594.815369	-78.455696	910.281616	482.759583	-132.755951	937.696411	272.682648	-83.228081	998.056580	66.093842	-137.581100	958.888062	50.619911	-193.021683	1129.961914	88.043114	-157.516708	719.247070	612.294800	-486.814453	675.340759	466.072754	-393.992615	601.616699	278.917725	-419.986908	562.947571	72.622971	-338.324341	521.485168	61.358273	-282.242371	704.185425	41.041229	-334.229370
277	2.76000000	849.141602	1334.577026	-73.666756	814.669739	1333.039551	-490.727386	732.651733	1408.645996	-272.544525	879.333252	1291.343018	-282.886749	711.452454	1023.183472	-1.573988	634.135925	1040.737671	-550.866028	728.285553	776.310730	-55.927174	639.640961	803.524628	-490.479172	796.297119	893.311646	-105.596207	788.257812	914.362427	-456.213898	618.581604	929.289368	-213.140854	613.970154	940.225647	-319.321930	616.275879	934.757507	-266.231392	633.070068	1155.160522	-271.087158	959.474792	1098.998047	-296.147278	858.537170	592.689270	-78.396652	915.402710	481.286041	-132.091949	940.062988	270.095886	-84.098404	1000.835388	64.107254	-137.951965	962.027283	49.809013	-193.792969	1133.031128	83.806824	-156.390106	727.046997	611.172791	-486.015778	681.432495	465.099915	-393.822937	605.219055	278.833771	-419.795868	563.438416	73.015289	-338.235809	521.863098	62.224789	-282.069336	704.286499	41.011734	-334.164551
278	2.77000000	854.917480	1333.182129	-71.505302	820.368042	1332.916260	-488.651337	738.330505	1407.796265	-270.194550	885.245911	1290.808960	-280.870758	717.942688	1021.266968	-0.388226	640.181580	1040.443970	-549.340454	734.596527	774.428314	-55.145428	645.127808	802.991211	-489.819687	803.839661	892.404358	-104.984795	795.485718	913.460754	-455.606537	625.484192	928.151733	-212.582565	621.130798	938.809753	-318.850159	623.307495	933.480743	-265.716362	639.300415	1154.049927	-269.784973	965.999878	1098.770874	-294.512634	863.014465	591.034058	-78.283653	920.586609	480.055450	-131.272675	942.236694	267.688751	-84.835724	1003.073425	62.185997	-138.246094	964.516785	49.276890	-194.473999	1135.653076	79.205940	-155.339172	734.732422	610.066162	-485.161926	687.639160	464.164032	-393.638031	608.941528	278.827087	-419.611694	563.965271	73.568268	-338.153870	522.288147	63.269108	-281.889282	704.406921	40.974098	-334.073181
279	2.78000000	860.714355	1331.921753	-69.306259	826.181091	1332.933350	-486.539276	744.071594	1407.077026	-267.828430	891.224365	1290.411133	-278.802795	724.496887	1019.471924	0.810093	646.345032	1040.273804	-547.742615	741.018372	772.657837	-54.305983	650.750275	802.589600	-489.040665	811.381775	891.731567	-104.372406	802.815308	912.585083	-454.938568	632.429321	927.224060	-212.013153	628.346313	937.568298	-318.376831	630.387817	932.396179	-265.194992	645.599915	1153.072754	-268.512299	972.611328	1098.689087	-292.795593	867.515442	589.865295	-78.088585	925.866089	479.088409	-130.299149	944.467468	265.569611	-85.322922	1004.940308	60.400288	-138.409775	966.522949	49.030769	-194.998184	1137.983398	74.440727	-154.351807	742.379150	608.992615	-484.277496	693.932251	463.296265	-393.452637	612.772522	278.919983	-419.452881	564.536987	74.303490	-338.098785	522.765381	64.516510	-281.730591	704.552124	40.930283	-333.955902
280	2.79000000	866.527527	1330.812134	-67.076202	832.119385	1333.100464	-484.396515	749.875183	1406.500366	-265.455475	897.267029	1290.158813	-276.686096	731.104675	1017.818420	2.017328	652.628174	1040.243652	-546.079773	747.550262	771.020233	-53.409161	656.514191	802.337769	-488.139572	818.880737	891.300781	-103.745918	810.243713	911.771606	-454.198883	639.401001	926.512207	-211.441223	635.606262	936.516907	-317.904205	637.503632	931.514557	-264.672714	651.964050	1152.243042	-267.273499	979.302979	1098.759766	-290.996155	872.115356	589.191589	-77.779800	931.269897	478.394592	-129.178848	946.969788	263.817444	-85.461998	1006.566162	58.802151	-138.414017	968.182495	49.055996	-195.326126	1140.126831	69.708893	-153.420151	750.052917	607.983887	-483.389282	700.289551	462.527557	-393.285370	616.702332	279.135193	-419.340607	565.163513	75.238358	-338.096222	523.298950	65.992737	-281.628448	704.726929	40.883392	-333.816681
281	2.80000000	872.351440	1329.867798	-64.821861	838.191833	1333.425049	-482.228241	755.740479	1406.076050	-263.084991	903.371521	1290.059326	-274.524200	737.754761	1016.324707	3.230446	659.033020	1040.367188	-544.360352	754.191101	769.535583	-52.455688	662.426758	802.251099	-487.114899	826.298767	891.113281	-103.088852	817.766052	911.058655	-453.377258	646.384888	926.017334	-210.873672	642.900818	935.667114	-317.432770	644.642853	930.842224	-264.153221	658.387756	1151.571899	-266.071442	986.067261	1098.987549	-289.115021	876.924133	589.010498	-77.323395	936.817810	477.971039	-127.926483	949.901245	262.473480	-85.191170	1008.039124	57.424286	-138.256561	969.598938	49.318333	-195.447449	1142.137085	65.190216	-152.544601	757.787903	607.086487	-482.525635	706.696289	461.886780	-393.157593	620.723999	279.494751	-419.297424	565.855225	76.386398	-338.175079	523.892639	67.721855	-281.623138	704.935852	40.837631	-333.663025
282	2.81000000	878.179749	1329.101318	-62.549904	844.405212	1333.912109	-480.039459	761.665527	1405.811157	-260.725861	909.534485	1290.117554	-272.320831	744.435059	1015.007141	4.447207	665.561646	1040.655396	-542.593750	760.939758	768.222687	-51.446697	668.496521	802.341827	-485.966385	833.605408	891.164307	-102.382210	825.375183	910.483765	-452.464630	653.368896	925.736328	-210.314926	650.220764	935.026245	-316.960968	651.794830	930.381287	-263.637947	664.865723	1151.067261	-264.907013	992.895447	1099.375000	-287.153687	882.071411	589.304749	-76.687202	942.516235	477.801727	-126.563988	953.344543	261.539948	-84.498199	1009.410889	56.282307	-137.959000	970.844177	49.769875	-195.377914	1144.028198	61.034489	-151.735077	765.576355	606.359558	-481.715881	713.145630	461.398926	-393.092285	624.834167	280.018585	-419.345581	566.623535	77.757607	-338.364471	524.550415	69.724342	-281.756744	705.182861	40.798058	-333.505829
283	2.82000000	884.005005	1328.522583	-60.266750	850.763367	1334.563965	-477.834900	767.646973	1405.709717	-258.386536	915.751587	1290.335693	-270.079956	751.132874	1013.879517	5.666325	672.215759	1041.115234	-540.790039	767.794586	767.098572	-50.383680	674.733154	802.618652	-484.695145	840.779053	891.443176	-101.605797	833.061951	910.081055	-451.453949	660.343933	925.662598	-209.766159	657.557617	934.597351	-316.485260	658.950775	930.129974	-263.125710	671.392090	1150.733521	-263.779358	999.777588	1099.921387	-285.114594	887.685425	590.040039	-75.846008	948.354370	477.858673	-125.119698	957.298462	260.985840	-83.424492	1010.705811	55.377628	-137.560699	971.963928	50.355991	-195.153183	1145.791504	57.354378	-151.010803	773.373413	605.867981	-480.988922	719.640259	461.083008	-393.112640	629.034180	280.723419	-419.505157	567.480652	79.358727	-338.690674	525.278381	72.015602	-282.068817	705.471375	40.770279	-333.358582
